HIERARCHY
ROOT SpineBase
{
  OFFSET 0.000000 0.000000 0.000000
  CHANNELS 6 Xposition Yposition Zposition Zrotation Xrotation Yrotation
  JOINT SpineMid
  {
    OFFSET 0.000000 28.576695 0.000000
    CHANNELS 3 Zrotation Xrotation Yrotation
    JOINT SpineShoulder
    {
      OFFSET 0.101472 21.416855 -0.926611
      CHANNELS 3 Zrotation Xrotation Yrotation
      JOINT Neck
      {
        OFFSET 0.121930 7.156948 -0.701261
        CHANNELS 3 Zrotation Xrotation Yrotation
        JOINT Head
        {
          OFFSET 2.658837 14.104780 -0.525324
          CHANNELS 3 Zrotation Xrotation Yrotation
          End Site
          {
            OFFSET 0 0 0
          }
        }
      }
      JOINT ShoulderLeft
      {
        OFFSET -8.599301 0.645793 -10.434745
        CHANNELS 3 Zrotation Xrotation Yrotation
        JOINT ElbowLeft
        {
          OFFSET -0.589991 -20.867435 -10.719332
          CHANNELS 3 Zrotation Xrotation Yrotation
          JOINT WristLeft
          {
            OFFSET 13.938704 -15.868109 -10.016622
            CHANNELS 3 Zrotation Xrotation Yrotation
            JOINT HandLeft
            {
              OFFSET 1.595619 -3.438262 -2.013086
              CHANNELS 3 Zrotation Xrotation Yrotation
              JOINT HandTipLeft
              {
                OFFSET 3.482876 -6.272715 -5.140835
                CHANNELS 3 Zrotation Xrotation Yrotation
                End Site
                {
                  OFFSET 0 0 0
                }
              }
              JOINT ThumbLeft
              {
                OFFSET -2.820375 -2.004649 -0.267604
                CHANNELS 3 Zrotation Xrotation Yrotation
                End Site
                {
                  OFFSET 0 0 0
                }
              }
            }
          }
        }
      }
      JOINT ShoulderRight
      {
        OFFSET 13.599567 -2.143502 10.678497
        CHANNELS 3 Zrotation Xrotation Yrotation
        JOINT ElbowRight
        {
          OFFSET 12.256039 -25.454129 -2.047804
          CHANNELS 3 Zrotation Xrotation Yrotation
          JOINT WristRight
          {
            OFFSET 10.896276 -16.086255 -13.189320
            CHANNELS 3 Zrotation Xrotation Yrotation
            JOINT HandRight
            {
              OFFSET 1.270815 -0.657685 -3.039074
              CHANNELS 3 Zrotation Xrotation Yrotation
              JOINT HandTipRight
              {
                OFFSET 2.171785 -4.956666 -1.767130
                CHANNELS 3 Zrotation Xrotation Yrotation
                End Site
                {
                  OFFSET 0 0 0
                }
              }
              JOINT ThumbRight
              {
                OFFSET 4.526523 2.900559 -1.352392
                CHANNELS 3 Zrotation Xrotation Yrotation
                End Site
                {
                  OFFSET 0 0 0
                }
              }
            }
          }
        }
      }
    }
  }
  JOINT HipLeft
  {
    OFFSET -4.988752 2.073083 -7.511777
    CHANNELS 3 Zrotation Xrotation Yrotation
    JOINT KneeLeft
    {
      OFFSET 18.670884 1.670174 -29.281550
      CHANNELS 3 Zrotation Xrotation Yrotation
      JOINT AnkleLeft
      {
        OFFSET 3.041463 -27.907145 9.166199
        CHANNELS 3 Zrotation Xrotation Yrotation
        JOINT FootLeft
        {
          OFFSET 8.212278 -2.468242 -11.090491
          CHANNELS 3 Zrotation Xrotation Yrotation
          End Site
          {
            OFFSET 0 0 0
          }
        }
      }
    }
  }
  JOINT HipRight
  {
    OFFSET 5.932660 0.862724 1.028555
    CHANNELS 3 Zrotation Xrotation Yrotation
    JOINT KneeRight
    {
      OFFSET 31.022385 7.373209 -5.240370
      CHANNELS 3 Zrotation Xrotation Yrotation
      JOINT AnkleRight
      {
        OFFSET -7.268591 -34.462580 -7.508624
        CHANNELS 3 Zrotation Xrotation Yrotation
        JOINT FootRight
        {
          OFFSET 1.285118 -6.087261 -8.670021
          CHANNELS 3 Zrotation Xrotation Yrotation
          End Site
          {
            OFFSET 0 0 0
          }
        }
      }
    }
  }
}
MOTION
Frames: 14
Frame Time: 0.033333
-52.827069 34.889145 332.327028 10.249144 -14.826773 -46.209185 -0.126186 0.158096 48.030731 -0.022821 0.910076 0.631539 -10.496755 2.650242 2.186212 0.000000 0.000000 0.000000 1.549155 38.051773 -10.169875 94.974059 2.185404 -16.963180 41.408669 19.631298 -41.781081 43.384848 -44.676386 64.485473 0.000000 0.000000 0.000000 0.000000 0.000000 0.000000 1.832146 4.072999 -7.234930 -15.266651 -0.030828 3.621482 -13.636052 -22.477853 -40.822278 -4.959558 54.192411 42.345621 0.000000 0.000000 0.000000 0.000000 0.000000 0.000000 -18.499877 4.695189 42.876232 -0.839638 1.936883 5.673428 -3.024603 -6.188393 3.830156 0.000000 0.000000 0.000000 -19.751540 -4.543910 55.270343 8.331927 1.847845 -7.756177 -30.714783 22.928432 41.840923 0.000000 0.000000 0.000000
-52.822881 34.747347 332.357372 10.234620 -14.700136 -46.703447 -0.255224 0.262340 48.496236 -0.000894 0.943774 0.622909 -9.989253 0.716551 2.412567 0.000000 0.000000 0.000000 -1.196729 37.232192 -7.844099 97.269794 -0.272554 -17.439541 35.197037 24.306799 -42.007020 34.777894 -44.827640 49.394998 0.000000 0.000000 0.000000 0.000000 0.000000 0.000000 2.024946 3.633692 -7.272863 -15.501107 -0.190318 3.574822 -13.993408 -22.776913 -40.635337 -6.365102 53.688389 43.681276 0.000000 0.000000 0.000000 0.000000 0.000000 0.000000 -18.532689 4.898135 43.477200 -1.097675 1.280857 5.465161 -2.669693 -5.806350 2.824143 0.000000 0.000000 0.000000 -19.531320 -4.646408 55.741034 8.320797 1.856188 -7.826446 -31.144363 22.471592 42.244549 0.000000 0.000000 0.000000
-52.817110 34.573702 332.372695 10.218716 -14.530741 -47.208153 -0.375235 0.335096 48.971865 -0.027115 0.941127 0.618918 -9.571268 -1.081352 2.647806 0.000000 0.000000 0.000000 -0.853652 36.267950 -8.031056 97.807065 -0.755130 -18.268209 32.370519 24.249239 -40.264789 23.519670 -42.690773 35.801893 0.000000 0.000000 0.000000 0.000000 0.000000 0.000000 2.206103 3.249795 -7.285090 -15.645336 -0.412288 3.458039 -13.791747 -22.628713 -39.480496 -5.377534 52.498600 42.219316 0.000000 0.000000 0.000000 0.000000 0.000000 0.000000 -18.549427 5.104883 43.982374 -1.456819 0.629308 5.330140 -2.314289 -5.485202 2.211424 0.000000 0.000000 0.000000 -19.282406 -4.814344 56.262372 8.215168 1.860274 -7.908397 -31.508241 22.373505 42.703037 0.000000 0.000000 0.000000
-52.816682 34.415168 332.379031 10.121367 -14.455429 -47.665521 -0.411807 0.210595 49.420104 -0.108475 0.906494 0.615179 -8.613158 -1.694456 2.722253 0.000000 0.000000 0.000000 2.438853 36.276638 -10.509467 96.477126 1.273448 -18.620080 34.730641 17.857836 -36.171508 8.860331 -39.906226 24.632677 0.000000 0.000000 0.000000 0.000000 0.000000 0.000000 2.406019 3.620140 -7.139874 -15.526200 -0.733747 3.219174 -13.296425 -21.888098 -40.719533 -6.518389 50.546997 43.880279 0.000000 0.000000 0.000000 0.000000 0.000000 0.000000 -18.573054 5.396303 44.385986 -1.765777 0.010793 5.275485 -2.146856 -5.258942 2.036280 0.000000 0.000000 0.000000 -19.055751 -4.904999 56.844476 8.156827 1.807137 -8.059700 -31.950472 22.583875 43.263352 0.000000 0.000000 0.000000
-52.792756 34.240572 332.314153 10.049829 -14.539949 -48.033827 -0.319848 -0.030336 49.814305 -0.148816 0.795438 0.622499 -7.709690 -0.453840 2.524908 0.000000 0.000000 0.000000 6.997436 36.519906 -14.126655 95.469711 3.057448 -19.240280 33.993522 14.797269 -33.206517 0.899481 -32.506993 13.681528 0.000000 0.000000 0.000000 0.000000 0.000000 0.000000 2.597159 4.202362 -7.131817 -15.816867 -1.085007 3.331145 -11.450225 -19.872281 -42.037905 -8.151674 47.499674 46.090343 0.000000 0.000000 0.000000 0.000000 0.000000 0.000000 -18.727741 5.772266 44.607353 -2.232644 -0.402028 5.316675 -1.985083 -5.327722 2.392692 0.000000 0.000000 0.000000 -18.958341 -4.841661 57.347435 8.000556 1.742412 -8.161420 -32.468080 23.196585 43.963208 0.000000 0.000000 0.000000
-52.760371 34.099366 332.220482 9.975984 -14.653091 -48.295713 -0.314187 -0.193848 50.094031 -0.163675 0.777558 0.618295 -6.732582 0.478059 2.321014 0.000000 0.000000 0.000000 11.998790 36.534659 -18.150641 93.776677 6.598116 -19.924315 37.391530 3.467514 -22.342838 -11.116347 -20.150908 -0.214653 0.000000 0.000000 0.000000 0.000000 0.000000 0.000000 2.671115 4.655471 -7.060090 -15.539468 -1.357587 2.992465 -11.723425 -20.024560 -42.027841 -6.893928 48.008772 44.925541 0.000000 0.000000 0.000000 0.000000 0.000000 0.000000 -18.866956 6.084975 44.639691 -2.676797 -0.605097 5.451583 -1.922470 -5.524207 3.381973 0.000000 0.000000 0.000000 -18.849273 -4.675824 57.810615 7.891940 1.606517 -8.332484 -32.161219 23.282075 43.503029 0.000000 0.000000 0.000000
-52.734928 33.972706 332.137776 9.924384 -14.832755 -48.451308 -0.338997 -0.298472 50.270107 -0.168621 0.781214 0.613856 -5.625419 1.684510 2.020299 0.000000 0.000000 0.000000 16.712842 34.607587 -21.803399 90.582442 12.639593 -22.421332 40.420524 3.145269 -22.073721 -9.543262 -16.822926 -3.326520 0.000000 0.000000 0.000000 0.000000 0.000000 0.000000 2.616542 5.079803 -6.973426 -14.804283 -1.564906 2.296694 -13.230588 -21.443783 -40.815284 -6.845786 49.816710 44.519034 0.000000 0.000000 0.000000 0.000000 0.000000 0.000000 -19.052529 6.416464 44.558123 -2.897748 -0.611090 5.709773 -2.156781 -5.883437 4.598525 0.000000 0.000000 0.000000 -18.847868 -4.535470 58.209855 7.729196 1.491238 -8.491986 -32.035107 23.844490 43.421476 0.000000 0.000000 0.000000
-52.749919 33.813458 332.105242 9.811470 -15.032077 -48.720341 -0.360794 -0.345570 50.543714 -0.161537 0.835627 0.603260 -4.559475 2.530607 1.766565 0.000000 0.000000 0.000000 19.059097 33.516682 -23.540725 89.423845 15.234147 -23.849677 40.214091 5.531828 -24.485738 -9.213546 -14.473048 -5.659362 0.000000 0.000000 0.000000 0.000000 0.000000 0.000000 2.664173 5.337008 -6.934428 -13.875433 -1.608634 1.438849 -15.066944 -23.431291 -38.255851 -3.201380 51.155512 39.882923 0.000000 0.000000 0.000000 0.000000 0.000000 0.000000 -19.232706 6.786184 44.592565 -3.120480 -0.749897 5.948186 -2.222320 -6.104583 5.053005 0.000000 0.000000 0.000000 -18.812999 -4.415006 58.790029 7.577856 1.397654 -8.718250 -32.098874 24.580008 43.604282 0.000000 0.000000 0.000000
-52.790048 33.667482 332.166717 9.689069 -15.313264 -49.010219 -0.441963 -0.273474 50.828582 -0.128859 0.855189 0.596447 -3.721148 3.061990 1.589168 0.000000 0.000000 0.000000 19.701646 32.770388 -23.940472 89.262098 16.171984 -24.942410 38.760952 8.211086 -27.004273 -8.114447 -16.829601 -3.383871 0.000000 0.000000 0.000000 0.000000 0.000000 0.000000 2.649822 5.512181 -6.923005 -12.732163 -1.395665 0.543884 -17.625832 -26.611718 -34.908195 2.779345 52.879910 32.332373 0.000000 0.000000 0.000000 0.000000 0.000000 0.000000 -19.468957 7.180317 44.790951 -3.280380 -0.757692 6.095146 -2.273824 -6.408741 5.069870 0.000000 0.000000 0.000000 -18.845329 -4.319526 59.480900 7.466432 1.342442 -9.016962 -32.158609 25.341096 43.819329 0.000000 0.000000 0.000000
-52.852434 33.567446 332.323825 9.591032 -15.636149 -49.125647 -0.565085 -0.115000 50.936086 -0.076606 0.846955 0.593745 -3.254663 3.061741 1.563291 0.000000 0.000000 0.000000 18.515553 32.694083 -22.949439 89.491315 15.485543 -25.061823 35.828682 13.383259 -31.596842 -1.187239 -20.986323 2.423127 0.000000 0.000000 0.000000 0.000000 0.000000 0.000000 2.842257 5.468966 -7.046988 -10.986852 -0.569290 -0.761821 -20.756250 -30.087077 -33.062550 7.938957 58.476926 26.931182 0.000000 0.000000 0.000000 0.000000 0.000000 0.000000 -19.702468 7.519888 45.014687 -3.319521 -0.613961 6.091415 -2.368088 -6.718664 4.980937 0.000000 0.000000 0.000000 -18.930232 -4.178333 60.062038 7.399970 1.339344 -9.380941 -34.837354 24.361059 47.503221 0.000000 0.000000 0.000000
-52.917977 33.483977 332.483111 9.485560 -15.946438 -49.118135 -0.689465 0.098702 50.911382 -0.018942 0.826133 0.592955 -3.049164 2.940623 1.585388 0.000000 0.000000 0.000000 15.947417 33.381015 -20.911416 89.821972 13.489424 -24.018227 34.456448 14.271717 -31.730276 4.012807 -25.417353 8.297946 0.000000 0.000000 0.000000 0.000000 0.000000 0.000000 2.636676 5.571441 -7.019479 -9.815883 -0.240918 -1.536980 -23.012843 -33.968236 -28.650589 16.993401 58.799314 15.520606 0.000000 0.000000 0.000000 0.000000 0.000000 0.000000 -19.898941 7.868803 45.217483 -3.244746 -0.420919 6.028973 -2.558740 -7.017990 4.857257 0.000000 0.000000 0.000000 -19.018481 -3.943014 60.415286 7.325585 1.363626 -9.653566 -34.274395 25.089126 46.814286 0.000000 0.000000 0.000000
-52.969534 33.421896 332.615492 9.413532 -16.145393 -49.082572 -0.809670 0.330848 50.852254 0.042729 0.803632 0.593200 -3.041161 2.416792 1.699416 0.000000 0.000000 0.000000 15.549609 33.397114 -20.650698 88.867243 14.151306 -23.640576 35.773928 12.591155 -30.205584 14.364188 -32.781863 21.561048 0.000000 0.000000 0.000000 0.000000 0.000000 0.000000 2.124061 6.051130 -6.731624 -9.425785 -0.649734 -1.774538 -25.943256 -40.346103 -23.058485 24.164870 57.214835 3.888031 0.000000 0.000000 0.000000 0.000000 0.000000 0.000000 -20.015566 8.096506 45.341002 -3.191311 -0.443779 5.942865 -2.645376 -7.032141 4.809537 0.000000 0.000000 0.000000 -19.060427 -3.761545 60.631502 7.281822 1.403855 -9.858201 -31.007975 26.685076 42.528010 0.000000 0.000000 0.000000
-53.008452 33.382347 332.720505 9.350384 -16.203913 -48.911311 -0.932174 0.495338 50.655351 0.028946 0.771060 0.594458 -3.076113 1.570008 1.887674 0.000000 0.000000 0.000000 15.613655 33.326011 -20.659375 88.523201 14.604441 -23.538419 38.537857 8.993348 -27.415510 -6.530254 -23.244864 2.498481 0.000000 0.000000 0.000000 0.000000 0.000000 0.000000 2.025699 6.070981 -6.641090 -10.220730 -1.486023 -1.468446 -22.870472 -37.815766 -19.839609 21.723924 54.175687 5.043180 0.000000 0.000000 0.000000 0.000000 0.000000 0.000000 -19.997374 8.237497 45.332829 -3.127059 -0.570598 5.803882 -2.695449 -6.883435 4.838933 0.000000 0.000000 0.000000 -19.055496 -3.634748 60.560404 7.169368 1.458486 -9.912884 -24.204025 28.923725 33.876076 0.000000 0.000000 0.000000
-53.028860 33.390110 332.784593 9.269439 -16.361567 -48.634150 -0.915404 0.453146 50.383506 -0.003711 0.681912 0.601211 -2.756149 2.108241 1.791473 0.000000 0.000000 0.000000 16.456907 34.065722 -21.366098 87.807534 14.922313 -22.786034 43.107958 3.590481 -22.861367 -10.569333 -19.011854 -1.644332 0.000000 0.000000 0.000000 0.000000 0.000000 0.000000 1.650433 6.680776 -6.435898 -11.227858 -2.291827 -0.616023 -21.134340 -36.996497 -17.812868 16.486540 50.028408 7.873642 0.000000 0.000000 0.000000 0.000000 0.000000 0.000000 -20.010494 8.419290 45.244340 -3.058403 -0.635109 5.655753 -2.791419 -6.830840 4.951525 0.000000 0.000000 0.000000 -19.121771 -3.340271 60.314879 7.103324 1.472581 -9.893822 -13.699218 29.820668 20.560179 0.000000 0.000000 0.000000
